<svg width="10" height="7" viewBox="0 0 10 7" fill="none" xmlns="http://www.w3.org/2000/svg">
<path d="M4.21956 4.7506C4.21956 4.93405 4.15818 5.11749 4.09681 5.30094C4.03544 5.48439 3.9127 5.66783 3.78996 5.79013C3.66722 5.91243 3.4831 6.03473 3.29899 6.15703C3.11488 6.21818 2.8694 6.27933 2.62391 6.27933C2.31706 6.27933 2.07157 6.21817 1.82609 6.09587C1.5806 5.97358 1.33512 5.85129 1.151 5.66784C0.966891 5.48439 0.905521 5.30095 0.782779 5.05635C0.721408 4.81175 0.660034 4.56714 0.660034 4.2614C0.660034 3.71105 0.782776 3.28301 0.966889 2.79382C1.151 2.36578 1.39649 1.93774 1.76472 1.63199C1.88746 1.50969 2.07157 1.32624 2.25568 1.20394C2.43979 1.08164 2.62391 0.959341 2.80802 0.898191C2.99213 0.837042 3.11488 0.714747 3.23762 0.653598C3.36036 0.592449 3.42173 0.59246 3.4831 0.531311L4.3423 1.7543C4.21956 1.81544 4.03545 1.87659 3.85133 1.99889C3.66722 2.06004 3.4831 2.18234 3.29899 2.30463C3.11488 2.42693 2.99213 2.61037 2.86939 2.79382C2.74665 2.97727 2.68528 3.16072 2.68528 3.40531C3.11488 3.40531 3.42173 3.52761 3.72859 3.77221C4.09681 3.95566 4.21956 4.32256 4.21956 4.7506ZM9.06787 4.7506C9.06787 4.93405 9.0065 5.11749 8.94513 5.30094C8.88376 5.48439 8.76101 5.66783 8.63827 5.79013C8.51553 5.91243 8.33142 6.03473 8.14731 6.15703C7.96319 6.21818 7.7177 6.27933 7.47222 6.27933C7.16537 6.27933 6.91988 6.21817 6.6744 6.09587C6.42892 5.97358 6.18343 5.85129 5.99932 5.66784C5.87658 5.48439 5.75383 5.30095 5.63109 5.05635C5.56972 4.81175 5.50835 4.56714 5.50835 4.2614C5.50835 3.71105 5.63109 3.28301 5.8152 2.79382C5.99932 2.36578 6.2448 1.93774 6.61303 1.63199C6.73577 1.50969 6.91988 1.32624 7.104 1.20394C7.28811 1.08164 7.47222 0.959341 7.65634 0.898191C7.84045 0.837042 7.96319 0.714747 8.08593 0.653598C8.20867 0.592449 8.27005 0.59246 8.33142 0.531311L9.19061 1.7543C9.06787 1.81544 8.88375 1.87659 8.69964 1.99889C8.51553 2.06004 8.33142 2.18234 8.14731 2.30463C7.96319 2.42693 7.84045 2.61037 7.71771 2.79382C7.59496 2.97727 7.5336 3.16072 7.5336 3.40531C7.96319 3.40531 8.27005 3.52761 8.5769 3.77221C8.88376 3.95566 9.06787 4.32256 9.06787 4.7506Z" fill="white"/>
</svg>
